<?xml version="1.0" encoding="UTF-8"?>
<svg version="1.1" xmlns="http://www.w3.org/2000/svg" width="512" height="512">
<path d="M0 0 C2.1403296 1.37024479 4.28746587 2.48049783 6.5625 3.60546875 C12.96309276 7.11729841 18.2454577 12.19216111 23.66259766 17.02734375 C25.08640352 18.28133791 26.54603867 19.49443397 28.01171875 20.69921875 C35.27139078 26.77817118 40.55471842 34.10367764 46.03979492 41.74755859 C47.08601357 43.17208573 48.19704131 44.54878854 49.32421875 45.91015625 C70.73443961 73.58780915 80.59343605 111.25728044 89.3125 144.48046875 C89.59746338 143.32937622 89.59746338 143.32937622 89.88818359 142.1550293 C98.61043162 107.29968386 109.59670043 67.62643691 133.87719727 40.14428711 C136.03442022 37.64361107 137.93072406 34.96085347 139.875 32.29296875 C153.23087504 14.60982094 176.74189223 -5.15865243 199.3125 -8.51953125 C211.99942005 -9.455342 226.13063841 -9.09134346 236.3125 -0.51953125 C243.05011817 5.50001877 246.99742513 13.58066745 251.21044922 21.43212891 C252.27354161 23.40805828 253.35424783 25.37316758 254.44140625 27.3359375 C259.3125 36.19236263 259.3125 36.19236263 259.3125 38.48046875 C260.3025 38.81046875 261.2925 39.14046875 262.3125 39.48046875 C263.56640625 40.86328125 263.56640625 40.86328125 264.875 42.60546875 C271.6627566 50.78167957 281.08256294 55.06622872 290.6875 59.10546875 C291.73421875 59.55664062 292.7809375 60.0078125 293.859375 60.47265625 C298.09934006 62.29427087 302.34964758 64.08644538 306.62060547 65.83422852 C307.67908691 66.26791748 308.73756836 66.70160645 309.828125 67.1484375 C310.77719727 67.53281982 311.72626953 67.91720215 312.70410156 68.31323242 C320.85836151 71.96219506 325.58909422 77.40518424 329.3125 85.48046875 C332.95140766 96.15959981 332.84522774 107.52200832 327.90234375 117.6953125 C319.46996912 132.46750688 306.68712933 144.18335905 293.3125 154.48046875 C292.37019531 155.228125 291.42789062 155.97578125 290.45703125 156.74609375 C256.11904468 183.41813616 208.87187741 194.96699874 166.93164062 203.27709961 C163.32109067 203.73139 163.32109067 203.73139 160.3125 205.48046875 C161.56848999 205.7278479 161.56848999 205.7278479 162.84985352 205.98022461 C183.68701673 210.12896032 204.03823329 215.10974216 224.3125 221.48046875 C225.25335449 221.7738916 226.19420898 222.06731445 227.16357422 222.36962891 C237.84609505 225.75273013 248.11284244 229.98955843 258.375 234.48046875 C259.49358398 234.96684814 260.61216797 235.45322754 261.76464844 235.9543457 C269.05228076 239.21571893 275.70753262 243.00008421 282.3125 247.48046875 C283.31023437 248.1559375 284.30796875 248.83140625 285.3359375 249.52734375 C291.57200414 254.04383055 297.48334547 258.86266287 303.30859375 263.890625 C305.05538502 265.3966362 306.81316695 266.89041656 308.59765625 268.3515625 C319.21298063 277.15194076 326.94919137 288.39054286 331.3125 301.48046875 C332.16263259 313.63318384 331.34468029 324.87913769 323.20703125 334.66015625 C315.15332086 342.39836046 303.79437688 345.86889934 293.5612793 349.75341797 C284.23037871 353.33253322 275.09234723 357.23688973 267.75 364.16796875 C266.94433594 364.91433594 266.13867188 365.66070312 265.30859375 366.4296875 C263.15793876 368.51422489 263.15793876 368.51422489 261.3125 371.48046875 C260.6525 371.48046875 259.9925 371.48046875 259.3125 371.48046875 C259.09980469 372.24746094 258.88710938 373.01445312 258.66796875 373.8046875 C256.78856103 378.90129459 254.22734653 383.53320333 251.625 388.29296875 C251.12033203 389.23978516 250.61566406 390.18660156 250.09570312 391.16210938 C243.68724198 402.93390969 237.0161942 412.32677522 223.94921875 416.765625 C220.98326023 417.56972931 218.37211308 417.81123773 215.3125 417.48046875 C215.3125 418.14046875 215.3125 418.80046875 215.3125 419.48046875 C206.98018816 419.80048642 200.00814527 419.77479177 192.3125 416.48046875 C191.41402344 416.15175781 190.51554687 415.82304687 189.58984375 415.484375 C176.32919684 410.43519587 165.38169183 402.23777703 154.88720703 392.87451172 C153.33764039 391.50272482 151.76414921 390.16399403 150.18359375 388.828125 C143.52556297 383.09786991 138.39363644 376.95353336 133.48046875 369.6796875 C131.81393092 367.22041816 130.10997689 364.91387842 128.25 362.60546875 C118.57396111 349.65903683 112.55030046 334.40631204 106.29296875 319.63500977 C105.49384279 317.54490627 105.49384279 317.54490627 104.3125 316.48046875 C109.68322537 340.82914872 116.88533331 365.84227728 129.61328125 387.52734375 C131.3125 390.48046875 131.3125 390.48046875 131.3125 392.48046875 C131.9725 392.48046875 132.6325 392.48046875 133.3125 392.48046875 C134.48242188 394.00244141 134.48242188 394.00244141 135.78125 396.14453125 C136.26489014 396.93021484 136.74853027 397.71589844 137.24682617 398.52539062 C137.76349854 399.37681641 138.2801709 400.22824219 138.8125 401.10546875 C147.0682026 414.43386265 155.77525683 428.18473175 167.07421875 439.1640625 C169.3125 441.48046875 169.3125 441.48046875 169.3125 443.48046875 C169.9725 443.48046875 170.6325 443.48046875 171.3125 443.48046875 C172.48651208 444.5854213 173.64938687 445.70426642 174.7578125 446.875 C175.88140898 448.03529687 177.04935933 449.1531885 178.2421875 450.2421875 C185.38027537 456.88195602 189.92971593 464.18177762 190.44140625 474.10546875 C189.98316142 482.54828265 184.67450228 488.57620803 179.375 494.73046875 C177.1025563 496.6586028 174.7078986 498.13349218 172.078125 499.53125 C170.1273644 500.54412346 170.1273644 500.54412346 167.6875 502.23046875 C161.22691006 504.62327984 153.35453735 504.83728096 147 501.91796875 C114.94040277 482.84453749 100.21629302 438.68169324 91.31542969 404.82641602 C90.96593262 403.50081665 90.96593262 403.50081665 90.609375 402.1484375 C90.40666992 401.36750732 90.20396484 400.58657715 89.99511719 399.78198242 C89.34420765 397.43439966 89.34420765 397.43439966 88.30761719 395.08544922 C87.17028115 392.10817357 86.62427691 389.27535837 86.09375 386.1328125 C85.88459961 384.89909912 85.67544922 383.66538574 85.45996094 382.39428711 C85.24306841 381.06902269 85.02727354 379.74357822 84.8125 378.41796875 C84.70200317 377.74009308 84.59150635 377.06221741 84.47766113 376.36380005 C80.44304092 351.4815659 79.3125 326.67570553 79.3125 301.48046875 C79.05146484 302.14353027 78.79042969 302.8065918 78.52148438 303.48974609 C75.4915074 311.16949071 72.42022137 318.83185353 69.3125 326.48046875 C68.9609082 327.34784668 68.60931641 328.21522461 68.24707031 329.10888672 C64.52344347 338.19020906 60.20755898 346.7287966 55.1875 355.16796875 C54.45104248 356.40703979 54.45104248 356.40703979 53.69970703 357.67114258 C51.01266967 362.06537135 48.15569042 366.01794651 44.72802734 369.8605957 C42.54577021 372.35788375 40.64393336 375.05465955 38.6875 377.73046875 C33.58529353 384.49013583 27.79988999 390.06383272 21.3125 395.48046875 C20.80348145 395.90956543 20.29446289 396.33866211 19.77001953 396.78076172 C8.13719667 406.47539257 -4.27857757 414.21741661 -19.08984375 417.82421875 C-21.60026771 418.2224459 -21.60026771 418.2224459 -22.6875 419.48046875 C-25.04063555 419.55318616 -27.39583668 419.56417743 -29.75 419.54296875 C-31.04035156 419.53394531 -32.33070313 419.52492188 -33.66015625 419.515625 C-35.15869141 419.49822266 -35.15869141 419.49822266 -36.6875 419.48046875 C-36.6875 418.82046875 -36.6875 418.16046875 -36.6875 417.48046875 C-37.96625 417.39796875 -39.245 417.31546875 -40.5625 417.23046875 C-48.88470914 416.25061681 -55.86712703 413.48455873 -61.62109375 407.265625 C-65.90714644 401.48877138 -69.16863231 395.08257235 -72.50341797 388.72509766 C-73.60634907 386.63430415 -74.73485622 384.56070123 -75.87890625 382.4921875 C-80.6875 373.7609484 -80.6875 373.7609484 -80.6875 371.48046875 C-81.28989502 371.21903076 -81.89229004 370.95759277 -82.51293945 370.68823242 C-84.83046336 369.40106606 -85.88738817 368.24599519 -87.48046875 366.15625 C-90.57332341 362.4222291 -93.81267416 360.06247016 -98 357.66796875 C-99.07133179 357.04293457 -99.07133179 357.04293457 -100.16430664 356.40527344 C-107.70710747 352.18098855 -115.69096029 349.06780207 -123.78051758 346.05541992 C-133.96328394 342.21748157 -143.08307971 338.2006352 -148.6875 328.48046875 C-149.1 327.77535156 -149.5125 327.07023437 -149.9375 326.34375 C-154.04013259 317.95329654 -154.10272168 307.5150376 -151.9921875 298.515625 C-151.05920908 296.03421601 -149.97294348 293.79749069 -148.6875 291.48046875 C-148.28660156 290.68769531 -147.88570312 289.89492188 -147.47265625 289.078125 C-141.06006099 277.31240674 -131.09989524 268.62349579 -120.6875 260.48046875 C-118.89412879 258.98250708 -117.10247293 257.48248951 -115.3125 255.98046875 C-78.74993155 226.35040977 -27.31132449 213.48923122 18.3125 205.48046875 C13.49882088 203.68582183 8.62037144 202.63751317 3.60839844 201.57861328 C-44.2133719 191.46955792 -89.11519592 176.44097777 -126.6875 144.48046875 C-127.78384766 143.57167969 -127.78384766 143.57167969 -128.90234375 142.64453125 C-138.81949338 134.2787773 -150.67827213 122.02318647 -152.6875 108.48046875 C-153.54194842 95.91587477 -152.56370204 84.62772336 -144.07421875 74.58984375 C-134.92604248 66.50471252 -121.3752965 62.55105865 -110.20141602 58.15649414 C-99.57262186 53.88754501 -89.53569405 47.85168167 -82.6875 38.48046875 C-82.0275 38.48046875 -81.3675 38.48046875 -80.6875 38.48046875 C-80.47609375 37.71476562 -80.2646875 36.9490625 -80.046875 36.16015625 C-78.15425651 31.03703377 -75.56169528 26.38662455 -72.9375 21.60546875 C-72.42445312 20.65027344 -71.91140625 19.69507812 -71.3828125 18.7109375 C-64.87597252 6.79263009 -58.60661065 -2.22660059 -45.43359375 -6.7578125 C-29.55133415 -11.16327569 -13.7825562 -8.94540907 0 0 Z M102.3125 309.48046875 C103.3125 311.48046875 103.3125 311.48046875 103.3125 311.48046875 Z " fill="#76B154" transform="translate(166.6875,8.51953125)"/>
</svg>
